<svg width="60" height="50" viewBox="0 0 60 50" fill="none" xmlns="http://www.w3.org/2000/svg">
<rect width="60" height="50" fill="#E5E5E5"/>
<g clip-path="url(#clip0)">
<rect width="414" height="896" transform="translate(-44 -487)" fill="white"/>
<g clip-path="url(#clip1)">
<rect x="-24.875" y="-24.875" width="108.75" height="125.75" rx="9.875" fill="white" stroke="#B0ABAB" stroke-width="0.25"/>
<path d="M49.8748 19.5767L48.779 23.9597L55.3535 22.864L49.8748 19.5767Z" fill="#FFC269"/>
<path d="M47.8512 8.76075C45.9595 8.46403 44.1693 8.98399 42.9769 10.0179C42.7917 10.1785 42.7473 10.4614 42.8745 10.671C43.693 12.0204 45.238 13.0635 47.1296 13.3602C49.1891 13.6833 51.1283 13.0383 52.3068 11.8159C51.5592 10.2914 49.9106 9.08371 47.8512 8.76075Z" fill="#95D6A4"/>
<path d="M54.1287 2.30436C55.5314 1.16624 57.2366 0.738501 58.7018 1.00979C58.944 1.05467 59.1259 1.27909 59.1198 1.5253C59.0832 3.01487 58.3136 4.59514 56.9109 5.73327C55.3756 6.97909 53.4779 7.37354 51.9292 6.93221C51.8163 5.32581 52.5933 3.55018 54.1287 2.30436Z" fill="#CCF49F"/>
<path d="M40.9522 20.1245L14.975 7.54525C14.3924 7.26306 13.7298 7.75326 13.8401 8.39123C14.1471 10.1676 14.8795 13.2102 16.5326 15.7413L38.2911 24.6639L40.9522 20.1245Z" fill="#DBEAFF"/>
<path d="M47.0593 17.072H47.0571C44.5513 17.072 42.1481 18.0675 40.3763 19.8393L38.7715 21.4442C38.0004 22.2153 36.8535 22.4723 35.8272 22.1039L2.61973 10.1832C1.91438 9.92996 1.25379 10.6416 1.55391 11.3284C2.40094 13.2663 4.10813 16.4381 7.02317 18.9927C12.0321 27.4426 19.9274 26.9925 19.9274 26.9925L26.2746 31.9595L10.4377 39.1106C9.71895 39.4373 9.28524 40.175 9.3409 40.9626C9.52735 43.6011 10.8267 49.1786 18.4928 49.064C19.196 49.0535 19.841 48.65 20.1557 48.0209L23.6052 41.0673C29.6049 43.1469 40.4813 44.2082 45.4 27.5783C45.78 26.2934 46.7076 25.2389 47.9476 24.7316L47.9789 24.7188C49.599 24.056 50.6575 22.4793 50.6575 20.729V20.6702C50.6575 18.6829 49.0465 17.072 47.0593 17.072Z" fill="#EDF4FF"/>
<path d="M18.4926 49.064C19.1959 49.0535 19.8409 48.65 20.1555 48.0209L23.6051 41.0673L20.3457 39.5661C19.7729 39.3023 19.106 39.3434 18.5701 39.6758L10.3336 44.7826C11.4463 47.0256 13.7489 49.1349 18.4926 49.064Z" fill="#DBEAFF"/>
<path d="M14.3062 48.4009C15.432 48.8352 16.8054 49.0895 18.4927 49.0643C19.1959 49.0538 19.8409 48.6503 20.1556 48.0212L23.6051 41.0676L21.3879 40.0464L14.3062 48.4009Z" fill="#C3DDFF"/>
<path d="M17.7326 28.3576L26.2377 26.4644L30.9337 29.282C22.4809 36.7957 17.7326 28.3576 17.7326 28.3576Z" fill="#C3DDFF"/>
<path d="M18.3155 23.0355C13.3611 23.1485 9.68825 21.3281 7.02328 18.9927C8.3536 23.4118 13.1787 32.2683 26.2378 26.4642L24.7797 25.2977C22.9453 23.8302 20.6639 22.982 18.3155 23.0355Z" fill="#DBEAFF"/>
<path d="M46.8402 21.7684V20.8291C46.8402 20.3437 46.4467 19.9502 45.9613 19.9502C45.4759 19.9502 45.0824 20.3437 45.0824 20.8291V21.7684C45.0824 22.2539 45.4759 22.6473 45.9613 22.6473C46.4467 22.6473 46.8402 22.2539 46.8402 21.7684Z" fill="black"/>
<path d="M52.6385 7.95305C52.8233 7.9711 53.0092 7.98317 53.1969 7.98317C54.6714 7.98317 56.2111 7.43309 57.4647 6.4159C59.157 5.04281 60.1235 2.98442 59.9871 1.04391C59.9612 0.674884 59.707 0.361642 59.3513 0.260158C57.4804 -0.272928 55.267 0.24879 53.5749 1.62188C52.8539 2.20688 52.2661 2.91692 51.8378 3.6886C51.6888 2.74746 51.5647 1.83164 51.4727 0.95508C51.4221 0.472384 50.9893 0.122228 50.507 0.172619C50.0242 0.223244 49.6739 0.655666 49.7245 1.13836C49.9848 3.62004 50.4811 6.37184 51.0905 9.13699C50.199 8.51039 49.1319 8.07188 47.9872 7.89235C45.7322 7.53867 43.454 8.2295 42.0413 9.69492C41.7845 9.96117 41.722 10.3598 41.8849 10.692C42.7812 12.5197 44.7387 13.8748 46.9935 14.2286C47.3841 14.2897 47.7751 14.3197 48.1625 14.3197C49.5891 14.3197 50.9612 13.9122 52.0509 13.1702C52.7721 16.0066 53.5508 18.7201 54.2482 21.0193L51.3053 19.2537C50.711 17.4775 49.0325 16.1933 47.0575 16.1933C44.5109 16.1933 42.1062 17.1107 40.2169 18.7861L14.0196 6.10629C13.746 5.97387 13.4235 5.99227 13.1666 6.15481C12.9098 6.31735 12.7552 6.60106 12.7579 6.90492C12.7593 7.06617 12.807 10.2346 14.2139 13.4115L1.17598 8.73129C0.864612 8.61949 0.516799 8.69203 0.275979 8.91914C0.0352757 9.14614 -0.057654 9.48914 0.0357444 9.80649C0.0859007 9.97699 1.30149 14.0256 4.56 17.7669C5.05828 18.339 5.62149 18.9204 6.25219 19.4862C7.08821 21.953 9.14907 26.3725 13.5328 28.2998C14.685 28.8064 15.9217 29.1132 17.2379 29.2225C17.813 30.103 19.7392 32.6684 22.962 33.2094C23.362 33.2766 23.765 33.3101 24.1716 33.3101C26.5311 33.3101 28.9968 32.1799 31.5178 29.9389C31.8806 29.6166 31.9133 29.061 31.5908 28.6982C31.2683 28.3354 30.7129 28.3028 30.35 28.6252C27.8179 30.8761 25.4351 31.836 23.2676 31.4782C21.5312 31.1916 20.2398 30.0966 19.4584 29.2234C21.6523 29.0561 24.0357 28.405 26.5948 27.2675C27.0383 27.0704 27.2381 26.5511 27.041 26.1075C26.8439 25.6639 26.3244 25.4641 25.881 25.6613C21.2671 27.7119 17.3507 28.0582 14.2405 26.6907C11.7121 25.579 10.0719 23.4718 9.04149 21.5439C12.138 23.3858 16.2899 24.527 21.6946 23.5732C22.1726 23.4888 22.4917 23.033 22.4074 22.555C22.3231 22.0768 21.8666 21.7581 21.3892 21.8421C15.1139 22.9497 9.9109 21.2052 5.92512 16.6575C4.15711 14.6402 3.02391 12.4841 2.38512 11.0331L35.5303 22.9314C36.8702 23.4123 38.3865 23.0728 39.3931 22.0661L40.9978 20.4613C42.6164 18.8427 44.7684 17.9513 47.0595 17.9513C48.5588 17.9513 49.7787 19.1711 49.7787 20.6705V20.7292C49.7787 22.1402 48.9322 23.3909 47.621 23.9159C46.1385 24.5094 45.0254 25.7412 44.5674 27.295C42.5523 34.1296 39.3326 38.5239 34.9976 40.3561C33.0894 41.1626 27.8804 42.6327 20.7409 38.8761C19.8911 38.4291 18.8502 38.4682 18.0241 38.9781L10.7189 43.4886C10.4626 42.7454 10.2874 41.8887 10.2177 40.9009C10.1876 40.4745 10.4167 40.0859 10.8014 39.911L20.0271 35.7176C20.469 35.5167 20.6644 34.9956 20.4635 34.5537C20.2627 34.1118 19.7414 33.9164 19.2997 34.1173L10.074 38.3107C9.03 38.7853 8.38301 39.876 8.46422 41.0248C8.57086 42.5345 8.99567 44.7237 10.4135 46.5796C12.1202 48.8134 14.7588 49.945 18.259 49.945C18.3408 49.945 18.4232 49.9444 18.5058 49.9431C19.5445 49.9275 20.4779 49.3417 20.9416 48.4143L24.0738 42.1499C25.7924 42.6838 27.8138 43.0971 29.9566 43.097C31.8139 43.0969 33.7627 42.7864 35.6817 41.9754C40.5253 39.9282 44.0821 35.1565 46.2532 27.7923C46.5581 26.7581 47.2948 25.94 48.2755 25.5473C48.8958 25.299 49.4473 24.943 49.9123 24.5056L55.0642 23.6469C55.8032 25.9716 56.334 27.4985 56.4024 27.6938C56.529 28.056 56.8688 28.2829 57.232 28.2829C57.3283 28.2829 57.4261 28.2669 57.5221 28.2334C57.9803 28.0733 58.2219 27.5719 58.0617 27.1137C58.0182 26.9893 54.6024 17.1622 52.6385 7.95305ZM54.6824 2.98699C55.7378 2.1307 57.0408 1.71387 58.2192 1.8286C58.0889 3.00516 57.4125 4.19461 56.357 5.05102C55.3016 5.90731 53.999 6.32438 52.8202 6.20942C52.9506 5.03285 53.627 3.84328 54.6824 2.98699ZM47.2658 12.4921C45.8197 12.2652 44.5481 11.5159 43.8026 10.4821C44.8288 9.72621 46.2689 9.40231 47.7149 9.62918C49.161 9.85606 50.4325 10.6052 51.1781 11.6391C50.1519 12.3948 48.7122 12.7188 47.2658 12.4921ZM36.1241 21.2768L16.6821 14.2976C15.3613 12.262 14.8434 9.86508 14.6428 8.36074L38.8808 20.0922L38.15 20.8228C37.6221 21.351 36.827 21.5291 36.1241 21.2768ZM11.4894 45.0788L18.9476 40.4738C19.2469 40.2889 19.6202 40.2729 19.9222 40.4318C19.9252 40.4333 19.9283 40.435 19.9313 40.4365L14.0477 47.3119C13.0798 46.8401 12.178 46.1303 11.4894 45.0788ZM19.3693 47.6282C19.2028 47.9611 18.8536 48.1799 18.4794 48.1854C17.7019 48.1972 16.7779 48.1413 15.8337 47.9284L21.5734 41.2209C21.8347 41.3343 22.1112 41.4489 22.4019 41.5628L19.3693 47.6282ZM51.2264 22.5045C51.3524 22.1557 51.4416 21.7909 51.4908 21.415L52.8543 22.2331L51.2264 22.5045Z" fill="black"/>
</g>
</g>
<defs>
<clipPath id="clip0">
<rect width="414" height="896" fill="white" transform="translate(-44 -487)"/>
</clipPath>
<clipPath id="clip1">
<rect width="414" height="758" fill="white" transform="translate(-47 -413)"/>
</clipPath>
</defs>
</svg>
